<svg width="69" height="62" viewBox="0 0 69 62" fill="none" xmlns="http://www.w3.org/2000/svg">
<g clip-path="url(#clip0_1_166)">
<path d="M62.9393 25.3205C62.4476 25.6951 61.9269 26.0121 61.3774 26.3003L62.9393 25.3205Z" stroke="black" stroke-width="1.15977" stroke-miterlimit="10"/>
<path d="M62.9392 25.3205L61.3483 26.3003" stroke="black" stroke-width="1.15977" stroke-miterlimit="10"/>
<path d="M62.9393 25.3205C62.4476 25.6951 61.9269 26.0121 61.3774 26.3003L62.9393 25.3205Z" stroke="black" stroke-width="1.15977" stroke-miterlimit="10"/>
<path d="M63.8358 5.52232V24.5424C63.5465 24.8306 63.2573 25.09 62.9391 25.3205C62.4474 25.6951 61.9268 26.0121 61.3772 26.3003L34.6224 42.8997L8.01219 26.4156C7.4337 26.1562 6.88415 25.8392 6.39244 25.4646V5.52232C6.36351 2.87103 8.53282 0.709656 11.2228 0.709656H59.0054C61.6665 0.709656 63.8358 2.87103 63.8358 5.52232Z" fill="white"/>
<rect x="15.006" y="7.73328" width="39.2621" height="4.21418" fill="#ECECEC"/>
<rect x="15.006" y="16.1616" width="39.2621" height="4.21418" fill="#ECECEC"/>
<rect x="15.006" y="23.1853" width="39.2621" height="4.21418" fill="#ECECEC"/>
<rect x="15.006" y="30.2089" width="39.2621" height="4.21418" fill="#ECECEC"/>
<path d="M41.8246 47.3954H11.2229C8.56189 47.3954 6.39258 45.234 6.39258 42.5827V25.4646C6.91321 25.8392 7.43385 26.1562 8.01233 26.4156L34.5936 42.8997L41.8246 47.3954Z" fill="white"/>
<path d="M6.36387 10.2773V25.4646C6.21925 25.3493 6.07463 25.2629 5.95893 25.1476C3.84747 23.4185 2.48804 20.796 2.48804 17.8854C2.48804 14.7442 4.02102 11.9776 6.36387 10.2773Z" fill="#06233E"/>
<path d="M63.9232 24.6719L63.9233 24.672L63.9288 24.6667C65.6972 22.9341 66.7577 20.5264 66.7577 17.8854C66.7577 15.2691 65.6888 12.8838 63.981 11.1565V10.8805C66.4989 12.7963 68.1163 15.8463 68.1163 19.2398V50.3636C68.1163 54.5284 65.7052 58.1079 62.2162 59.8525L40.3259 49.0181L31.4844 44.2488L61.4303 26.4541C61.9914 26.1883 62.5197 25.8367 63.0142 25.4601C63.2598 25.2819 63.4914 25.0684 63.7097 24.867C63.7823 24.8 63.8535 24.7344 63.9232 24.6719Z" fill="url(#paint0_linear_1_166)" stroke="#06335B" stroke-width="0.347931"/>
<path d="M5.84967 25.2831L5.85034 25.2836C5.92359 25.342 5.98946 25.3931 6.05435 25.4434L6.05469 25.4436C6.11984 25.4941 6.18403 25.5438 6.25528 25.6006L6.25515 25.6008L6.2621 25.6058C6.78664 25.9833 7.31427 26.3052 7.90162 26.5696L34.4729 43.0474L34.4731 43.0475L41.7039 47.5431L41.7042 47.5432L61.8517 60.0254C60.5322 60.6189 59.069 60.9389 57.5305 60.9389H11.7725C5.90963 60.9389 1.15779 56.2035 1.15779 50.3636V19.2398C1.15779 15.5875 3.01751 12.3551 5.83429 10.4654C3.69082 12.2133 2.31392 14.8813 2.31392 17.8854C2.31392 20.8796 3.69884 23.5511 5.84967 25.2831Z" fill="url(#paint1_linear_1_166)" stroke="#06335B" stroke-width="0.347931"/>
<path d="M66.6126 17.8854C66.6126 20.479 65.5424 22.8421 63.8359 24.5424V11.1995C65.5424 12.8998 66.6126 15.2629 66.6126 17.8854Z" fill="#06233E"/>
<path d="M63.8358 5.52232V24.5424C63.5465 24.8306 63.2573 25.09 62.9391 25.3205C62.4474 25.6951 61.9268 26.0121 61.3772 26.3003L34.6224 42.8997L8.01219 26.4156C7.4337 26.1562 6.88415 25.8392 6.39244 25.4646V5.52232C6.36351 2.87103 8.53282 0.709656 11.2228 0.709656H59.0054C61.6665 0.709656 63.8358 2.87103 63.8358 5.52232Z" fill="url(#paint2_linear_1_166)"/>
</g>
<defs>
<linearGradient id="paint0_linear_1_166" x1="54.2681" y1="38.6373" x2="36.7287" y2="47.0412" gradientUnits="userSpaceOnUse">
<stop stop-color="#06335B"/>
<stop offset="1" stop-color="#082947"/>
</linearGradient>
<linearGradient id="paint1_linear_1_166" x1="-0.418393" y1="28.1018" x2="37.5525" y2="108.821" gradientUnits="userSpaceOnUse">
<stop stop-color="#06335B"/>
<stop offset="1" stop-color="#062A4A"/>
</linearGradient>
<linearGradient id="paint2_linear_1_166" x1="3.78807" y1="48.4703" x2="52.94" y2="6.41538" gradientUnits="userSpaceOnUse">
<stop stop-opacity="0.22"/>
<stop offset="1" stop-color="white" stop-opacity="0"/>
</linearGradient>
<clipPath id="clip0_1_166">
<rect width="67.3064" height="60.4032" fill="white" transform="translate(0.983765 0.709656)"/>
</clipPath>
</defs>
</svg>
