<svg width="61" height="61" viewBox="0 0 61 61" fill="none" xmlns="http://www.w3.org/2000/svg">
<path d="M6.84722 4.04647L9.04214 1.85156C10.4398 0.453861 12.7059 0.453859 14.1036 1.85155L23.3582 11.1061C24.7559 12.5038 24.7559 14.7699 23.3582 16.1676L16.9431 22.5827C15.8734 23.6524 15.6082 25.2866 16.2848 26.6397C20.1958 34.4617 26.5383 40.8042 34.3603 44.7152C35.7134 45.3918 37.3476 45.1266 38.4173 44.0569L44.8324 37.6418C46.23 36.2441 48.4962 36.2441 49.8939 37.6418L59.1484 46.8964C60.5461 48.2941 60.5461 50.5602 59.1484 51.9579L56.9535 54.1528C49.397 61.7094 37.4338 62.5595 28.8846 56.1476L24.5596 52.9039C18.3195 48.2238 12.7762 42.6805 8.09612 36.4404L4.85243 32.1154C-1.55954 23.5662 -0.709354 11.603 6.84722 4.04647Z" fill="#06335B"/>
</svg>
