<svg width="34" height="34" viewBox="0 0 34 34" fill="none" xmlns="http://www.w3.org/2000/svg">
<path d="M3.5858 1.84892L4.83711 0.597613C5.63392 -0.199204 6.92582 -0.199205 7.72264 0.597612L12.9986 5.87359C13.7954 6.67041 13.7954 7.96231 12.9986 8.75912L9.34142 12.4163C8.73159 13.0262 8.5804 13.9578 8.96609 14.7292C11.1957 19.1885 14.8115 22.8043 19.2708 25.0339C20.0422 25.4196 20.9739 25.2684 21.5837 24.6586L25.2409 21.0014C26.0377 20.2046 27.3296 20.2046 28.1264 21.0014L33.4024 26.2774C34.1992 27.0742 34.1992 28.3661 33.4024 29.1629L32.1511 30.4142C27.8431 34.7222 21.023 35.2068 16.1491 31.5514L13.6835 29.7022C10.1261 27.0341 6.96589 23.8739 4.29779 20.3165L2.44858 17.8509C-1.20684 12.977 -0.722153 6.15687 3.5858 1.84892Z" fill="#06335B"/>
</svg>
