<svg width="39" height="35" viewBox="0 0 39 35" fill="none" xmlns="http://www.w3.org/2000/svg">
<g clip-path="url(#clip0_24_169)">
<path d="M35.8994 14.2605C35.6145 14.4776 35.3129 14.6613 34.9944 14.8282L35.8994 14.2605Z" stroke="black" stroke-miterlimit="10"/>
<path d="M35.8995 14.2605L34.9777 14.8282" stroke="black" stroke-miterlimit="10"/>
<path d="M35.8994 14.2605C35.6145 14.4776 35.3129 14.6613 34.9944 14.8282L35.8994 14.2605Z" stroke="black" stroke-miterlimit="10"/>
<path d="M36.419 2.78865V13.8096C36.2514 13.9766 36.0838 14.1269 35.8994 14.2605C35.6145 14.4776 35.3129 14.6613 34.9944 14.8282L19.4916 24.4466L4.07262 14.895C3.73743 14.7448 3.41899 14.5611 3.13408 14.344V2.78865C3.11732 1.25239 4.3743 0 5.93296 0H33.6201C35.162 0 36.419 1.25239 36.419 2.78865Z" fill="white"/>
<rect x="8.125" y="4.06976" width="22.75" height="2.44186" fill="#ECECEC"/>
<rect x="8.125" y="8.95349" width="22.75" height="2.44186" fill="#ECECEC"/>
<rect x="8.125" y="13.0233" width="22.75" height="2.44186" fill="#ECECEC"/>
<rect x="8.125" y="17.093" width="22.75" height="2.44186" fill="#ECECEC"/>
<path d="M23.6648 27.0515H5.93295C4.39105 27.0515 3.13406 25.7991 3.13406 24.2629V14.344C3.43574 14.5611 3.73742 14.7448 4.07261 14.895L19.4748 24.4466L23.6648 27.0515Z" fill="white"/>
<path d="M3.11733 5.54388V14.344C3.03353 14.2772 2.94973 14.2271 2.88269 14.1603C1.65923 13.1584 0.871521 11.6388 0.871521 9.95228C0.871521 8.13215 1.75979 6.52909 3.11733 5.54388Z" fill="#06233E"/>
<path d="M36.5024 13.9213L36.5025 13.9214L36.5072 13.9168C37.5412 12.9037 38.1612 11.496 38.1612 9.95226C38.1612 8.42998 37.5421 7.04155 36.5522 6.03311V5.99367C37.9541 7.09791 38.85 8.82233 38.85 10.7371V28.7714C38.85 31.1564 37.4744 33.2077 35.4803 34.2147L22.8189 27.9481L17.773 25.2262L35.0482 14.9608C35.3766 14.805 35.6848 14.5997 35.9721 14.3809C36.1169 14.2758 36.254 14.1493 36.3809 14.0323C36.4225 13.9939 36.4631 13.9565 36.5024 13.9213Z" fill="url(#paint0_linear_24_169)" stroke="#06335B" stroke-width="0.3"/>
<path d="M2.7886 14.2771L2.78919 14.2776C2.83195 14.3117 2.87038 14.3415 2.90798 14.3706L2.90812 14.3707C2.94589 14.4 2.98284 14.4286 3.02382 14.4613L3.02371 14.4614L3.02971 14.4657C3.33475 14.6852 3.64245 14.8732 3.98527 15.0278L19.3789 24.5739L19.379 24.574L23.5688 27.1789L23.569 27.179L35.1639 34.3625C34.4281 34.6795 33.617 34.85 32.7654 34.85H6.2514C2.88121 34.85 0.15 32.128 0.15 28.7715V10.7371C0.15 8.98827 0.891838 7.40691 2.07557 6.2997C1.23315 7.27702 0.721508 8.55221 0.721508 9.95228C0.721508 11.7027 1.53119 13.2646 2.7886 14.2771Z" fill="url(#paint1_linear_24_169)" stroke="#06335B" stroke-width="0.3"/>
<path d="M38.0279 9.95229C38.0279 11.4552 37.4078 12.8244 36.419 13.8096V6.07825C37.4078 7.06346 38.0279 8.43273 38.0279 9.95229Z" fill="#06233E"/>
<path d="M36.419 2.78865V13.8096C36.2514 13.9766 36.0838 14.1269 35.8994 14.2605C35.6145 14.4776 35.3129 14.6613 34.9944 14.8282L19.4916 24.4466L4.07262 14.895C3.73743 14.7448 3.41899 14.5611 3.13408 14.344V2.78865C3.11732 1.25239 4.3743 0 5.93296 0H33.6201C35.162 0 36.419 1.25239 36.419 2.78865Z" fill="url(#paint2_linear_24_169)"/>
</g>
<defs>
<linearGradient id="paint0_linear_24_169" x1="30.875" y1="21.9767" x2="20.712" y2="26.8463" gradientUnits="userSpaceOnUse">
<stop stop-color="#06335B"/>
<stop offset="1" stop-color="#082947"/>
</linearGradient>
<linearGradient id="paint1_linear_24_169" x1="-0.812501" y1="15.8721" x2="21.1893" y2="62.6442" gradientUnits="userSpaceOnUse">
<stop stop-color="#06335B"/>
<stop offset="1" stop-color="#062A4A"/>
</linearGradient>
<linearGradient id="paint2_linear_24_169" x1="1.625" y1="27.6744" x2="30.1055" y2="3.30612" gradientUnits="userSpaceOnUse">
<stop stop-opacity="0.22"/>
<stop offset="1" stop-color="white" stop-opacity="0"/>
</linearGradient>
<clipPath id="clip0_24_169">
<rect width="39" height="35" fill="white"/>
</clipPath>
</defs>
</svg>
